<?xml version="1.0" encoding="UTF-8"?>
<svg width="173px" height="253px" viewBox="0 0 173 253" version="1.1" xmlns="http://www.w3.org/2000/svg" xmlns:xlink="http://www.w3.org/1999/xlink">
    <title>路径</title>
    <g id="Page-1" stroke="none" stroke-width="1" fill="none" fill-rule="evenodd">
        <g id="Logo/2022/08/20" transform="translate(-164, -123)" fill="#000000" stroke="#000000">
            <path d="M262.747267,226.353327 C296.714543,230.868301 316.259264,244.361692 321.381427,266.833501 C325.538283,298.641359 333.311531,356.7106 336,375 C323.188039,369.099891 313.498818,364.741534 306.932339,361.924929 L294.486531,269.201101 C289.708845,260.770254 279.12909,255.489973 262.747267,253.360259 C262.747267,268.988808 262.747267,281.177571 262.747267,289.926549 L269.922778,294.456426 L277.38459,294.456426 L277.38459,320.81929 L262.747267,320.81929 L236.143804,304.620019 C236.143804,281.007407 236.143804,263.92082 236.143804,253.360259 C220.076835,255.063094 209.451034,260.343375 204.266402,269.201101 L188.819649,375 L165,354.014187 C170.188633,319.774473 174.195327,290.714244 177.020081,266.833501 C181.62711,244.972013 201.335018,231.478622 236.143804,226.353327 C202.75536,219.960723 183.047453,206.812029 177.020081,186.907244 C175.108313,165.265857 173.382131,144.967863 171.841533,126.013262 L197.949355,137.139995 L203.368907,181.222435 C207.483197,189.295277 218.408163,195.099373 236.143804,198.634722 C236.143804,181.73366 236.143804,167.872109 236.143804,157.050068 L272.779907,179.894602 L262.747267,179.894602 C262.747267,187.857907 262.747267,194.104614 262.747267,198.634722 C282.072183,194.228613 292.651938,188.424517 294.486531,181.222435 L302.646016,124 L326.760732,144.189557 C324.169358,161.712089 322.131071,175.951318 320.645871,186.907244 C315.282236,207.122826 295.982701,220.27152 262.747267,226.353327 Z" id="路径"></path>
        </g>
    </g>
</svg>